# xmcd
#
# Track frame offsets: 
#        150
#        17969
#        33701
#        55634
#        73802
#        93134
#        117015
#        137634
#        159861
#        177837
#        209973
#        230834
#        269764
#
# Disc length: 4770 seconds
#
# Revision: 0
# Processed by: cddbd v1.4PL0 Copyright (c) Steve Scherf et al.
# Submitted via: ExactAudioCopy v0.95a3
#
DISCID=be12a00d
DTITLE=Enzo Gragnaniello and James Senese - Tribù e Passione
DYEAR=2003
DGENRE=Blues
TTITLE0=Suonne e chi
TTITLE1=Scalinatella
TTITLE2=Giuramento
TTITLE3=Songh'io
TTITLE4=O' bbene è sempre bene
TTITLE5=Passione
TTITLE6=Vierno
TTITLE7=Chiove
TTITLE8=Scetate
TTITLE9=Ultimo contatto
TTITLE10=Concerto de Aranjnez
TTITLE11=Jazzam
TTITLE12=Protection
EXTD=
EXTT0=
EXTT1=
EXTT2=
EXTT3=
EXTT4=
EXTT5=
EXTT6=
EXTT7=
EXTT8=
EXTT9=
EXTT10=
EXTT11=
EXTT12=
PLAYORDER=
